<?xml version="1.0"?>
<svg version="1.1" xmlns="http://www.w3.org/2000/svg" width="400px" height="174px" style=""><path fill="#ff427f" d="M90.86,114.58c0,16.8-5.74,29.4-15.26,37.52c-8.68,7.28-20.86,10.5-34.72,10.5l-26.74,0c-2.8,0-4.06-0.7-4.06-3.92l0-88.76c0-2.94,0.84-4.2,4.34-4.2l20.16,0c16.1,0,27.02,1.82,36.26,7.14c12.6,7.28,20.02,21,20.02,41.72z M71.54,114.44c0-12.74-3.78-22.4-10.92-27.72c-5.74-4.2-13.16-5.74-22.12-5.74l-10.22,0l0,66.5l10.78,0c9.66,0,17.78-1.54,23.66-7.42c5.6-5.6,8.82-14,8.82-25.62z M173.39,128.44c0,3.36-1.12,4.06-4.62,4.06l-41.02,0c1.12,10.78,8.96,18.2,20.02,18.2c5.88,0,12.04-1.4,17.22-3.36c0.56-0.14,0.98-0.42,1.54-0.42c0.98,0,1.68,0.56,1.96,1.68l1.96,7.14c0.14,0.7,0.28,1.26,0.28,1.68c0,0.98-0.56,1.68-2.24,2.38c-6.86,3.08-16.24,4.48-23.52,4.48c-21.98,0-35-14-35-35.84c0-21,13.86-35.56,34.72-35.56c8.54,0,15.54,3.22,20.44,8.4c6.44,6.72,8.26,15.54,8.26,25.06l0,2.1z M156.73,121.44l0-1.54c-0.28-7.28-4.48-14-13.02-14c-9.1,0-14.56,7.28-15.68,15.54l28.7,0z M251.86,96.66c0,0.42-0.14,0.84-0.28,1.4l-24.5,61.88c-0.84,2.1-1.96,2.66-4.06,2.66l-7.28,0c-2.1,0-3.5-0.56-4.2-2.52l-24.08-62.44c-0.14-0.42-0.28-0.84-0.28-1.26c0-1.12,0.7-1.68,2.52-1.68l12.32,0c2.38,0,3.5,0.98,4.06,2.8l10.64,32.62c1.4,4.2,2.66,8.82,3.5,11.9l0.14,0c0.7-2.66,2.1-7.56,3.36-11.48l10.92-32.9c0.7-2.38,1.82-2.94,4.34-2.94l10.08,0c1.82,0,2.8,0.7,2.8,1.96z"/><path fill="#868e96" d="M275.225,135.45q0-2.1,8.625-16.275q-6.15,0-8.175,0.525q-3.375,0.825-5.025,3.375q-0.6,0.825-1.0125,0.9t-0.4125-0.3375t0.3-0.7125q2.85-3.825,5.625-5.25t8.775-1.425l1.8,0q4.575-6.975,12.825-20.7q3.075-5.775,3.075-9.375q0-5.775-7.05-5.85l-0.825,0q-9.6,0-17.475,4.8t-12.45,11.925t-4.575,12.825q0,6.975,6.525,6.975q5.175,0,8.85-4.575t3.675-8.7q0-2.325-1.2-3.825q-0.15-0.15-0.15-0.375q0-0.525,0.6-0.525q0.3,0,0.45,0.225q1.5,1.95,1.5,4.65q0,4.575-3.75,9.3375t-7.875,5.2875q-1.275,0.225-2.475,0.225q-4.8,0-7.425-3.075q-2.55-2.775-2.55-7.5q0-1.95,0.45-3.975q2.25-10.125,13.0125-17.7t24.1875-7.575q5.175,0,8.8875,2.2125t3.7125,6.1875t-2.775,8.4l-13.575,20.85q2.4,0.075,8.5875,0.7125t9.3,0.6375t4.1625-0.075l2.85-4.725q7.275-12.225,16.8375-22.8375t16.6875-13.1625q0.225-0.075,0.45-0.075q0.525,0,0.525,0.6q0,0.225-0.225,0.375q-4.8,2.7-13.7625,13.0875t-15.4875,21.3375l-2.925,4.95q3.45-0.45,4.95-1.725q0.3-0.225,0.525,0.2625t-0.075,0.7125q-2.25,1.725-6.375,2.475q-5.25,9.75-5.25,13.725q0,2.55,2.175,2.55q1.5,0,3.4875-1.0125t2.6625-1.725t0.825-0.7125t0.075,0.4875t-0.3,0.7875q-1.275,1.2-3.825,2.55t-4.125,1.35t-2.325-0.525q-2.4-1.575-2.4-5.475t3.975-11.4q-2.775,0.225-5.175,0.225q-0.825,0-17.625-0.525q-5.325,8.4-8.55,15.3q-0.975,2.025-2.3625,2.025t-1.3875-1.125z M349.63775,132.45q-0.375,0.075-1.6125,0.075t-2.475-0.975t-1.2375-2.5125t0.5625-3.4125t0.7875-2.85q-8.625,10.05-13.5,10.05q-3.075,0-3.375-3.825l0-0.525q0-3.225,3.9-8.7q-2.175,1.95-4.425,4.5q-0.3,0.3-0.75,0.3q-0.3,0-0.3-0.375t0.675-1.275l10.35-12.15q1.95-2.25,3.975-2.25t2.025,1.35q0,0.525-0.45,0.975q-3,2.775-7.5375,9.225t-4.5375,9.525q0,1.35,0.9,1.35q3.15,0,9.15-6.225q2.1-2.1,7.8-9.2625t7.5-7.1625q2.7,0,2.7,2.1q0,0.75-3.15,4.35q-4.275,5.175-6.525,8.4375t-2.25,5.2875t1.125,2.025q0.525,0,1.2-0.3q5.175-2.25,12.375-10.5q0.45-0.525,0.9-0.525t0.45,0.4875t-0.525,1.0875q-3.225,3.75-7.575,7.5375t-6.15,4.1625z M380.9255,113.325q0-5.1,3.15-5.1q0.3,0,0.675,0.075q1.275,0.225,1.275,1.95t-0.6,4.35q-0.6,1.95-0.825,2.925q0.225,1.275,1.2375,3.2625t2.775,1.9875t3.9375-2.4q0.45-0.525,0.8625-0.525t0.45,0.4875t-0.5625,1.3125q-2.325,2.775-4.875,2.775q-3.675,0-5.925-5.4q-2.325,5.325-6.6,9.1875t-8.475,3.8625q-3.975,0-3.975-6q0-4.725,8.8125-17.4t13.4625-12.675q0.975,0,1.7625,0.6t0.7875,1.425q0-0.075-1.0875,1.125t-5.925,6.45t-9.4875,11.55t-4.65,9.75q0,0.9,0.4875,1.95t1.6125,1.05q3.3,0,7.725-5.1q3.675-4.5,4.5-7.575q-0.525-1.575-0.525-3.9z"/></svg>
